<svg width="172" height="142" viewBox="0 0 172 142" fill="none" xmlns="http://www.w3.org/2000/svg">
<path d="M24.9655 0H147.034C153.887 0 160.124 2.82739 164.646 7.37299H164.671C169.19 11.9186 172 18.2033 172 25.116V116.884C172 123.778 169.19 130.052 164.671 134.602L164.646 134.627C160.124 139.173 153.887 142 147.034 142H24.9655C18.0943 142 11.8472 139.173 7.32881 134.627L6.97104 134.234C2.66264 129.717 0 123.594 0 116.884V25.116C0 18.2033 2.81045 11.9186 7.32881 7.37299C11.8472 2.82739 18.0943 0 24.9655 0ZM75.9094 94.0722V47.9278H96.4587C104.726 47.9278 110.403 49.7004 113.484 53.2436C116.567 56.7888 118.108 62.7072 118.108 71.0012C118.108 79.2948 116.567 85.2132 113.484 88.7564C110.403 92.2999 104.726 94.0722 96.4587 94.0722H75.9094ZM96.6791 59.7416H90.5879V82.2604H96.6791C98.6847 82.2604 100.141 82.0259 101.046 81.5571C101.951 81.0904 102.402 80.019 102.402 78.3468V63.6532C102.402 61.981 101.951 60.9093 101.046 60.4426C100.141 59.9738 98.6847 59.7416 96.6791 59.7416ZM53.8938 94.0722V47.9278H68.5726V94.0722H53.8938ZM147.034 12.1427H24.9655C21.4248 12.1427 18.2004 13.6054 15.8623 15.9579C13.5238 18.3101 12.0699 21.5539 12.0699 25.116V116.884C12.0699 120.323 13.4136 123.46 15.5939 125.789L15.8623 126.042C18.2004 128.395 21.4248 129.857 24.9655 129.857H147.034C150.583 129.857 153.81 128.399 156.15 126.055C158.48 123.7 159.93 120.455 159.93 116.884V25.116C159.93 21.5539 158.476 18.3101 156.138 15.9579C153.81 13.6013 150.583 12.1427 147.034 12.1427Z" fill="white"/>
</svg>
