<svg width="404" height="210" viewBox="0 0 404 210" fill="none" xmlns="http://www.w3.org/2000/svg">
<path d="M213 5C221.284 5 228 11.7157 228 20V162C228 170.155 221.492 176.79 213.387 176.995L213 177H152.764C152.894 177.82 152.973 178.658 152.994 179.51L153 180V191C153 194.256 152.181 197.321 150.737 200H164L164.257 200.007C166.899 200.141 169 202.325 169 205C169 207.675 166.899 209.859 164.257 209.993L164 210H74C71.2386 210 69 207.761 69 205C69 202.239 71.2386 200 74 200H88.2637C86.8201 197.321 86 194.256 86 191V180L86.0059 179.51C86.0274 178.658 86.1062 177.82 86.2363 177H15L14.6133 176.995C6.50774 176.79 0 170.155 0 162V20C0 11.7157 6.71573 5 15 5H213ZM99.8047 177C99.2939 177.883 99 178.907 99 180V191C99 194.314 101.686 197 105 197H134C137.314 197 140 194.314 140 191V180C140 178.907 139.706 177.883 139.195 177H99.8047ZM385 0C395.493 4.58682e-07 404 8.50659 404 19V162C404 172.493 395.493 181 385 181H296L295.51 180.994C285.406 180.738 277.262 172.594 277.006 162.49L277 162V19L277.006 18.5098C277.262 8.40583 285.406 0.261758 295.51 0.00585938L296 0H385ZM296 13C292.686 13 290 15.6863 290 19V162C290 165.314 292.686 168 296 168H385C388.314 168 391 165.314 391 162V19C391 15.6863 388.314 13 385 13H296ZM16 161H212V21H16V161ZM237.657 104.938C238.048 104.548 238.681 104.548 239.071 104.938C239.462 105.329 239.462 105.962 239.071 106.353L234.414 111.01H267V113.01H234.414L239.071 117.667C239.462 118.058 239.462 118.691 239.071 119.081C238.681 119.471 238.048 119.471 237.657 119.081L231.293 112.717C230.902 112.326 230.902 111.693 231.293 111.303L237.657 104.938ZM321 118H299V112H321V118ZM349 118H327V112H349V118ZM69 107H25V101H69V107ZM122 107H78V101H122V107ZM321 106H299V100H321V106ZM349 106H327V100H349V106ZM69 95H25V89H69V95ZM122 95H78V89H122V95ZM321 94H299V88H321V94ZM349 94H327V88H349V94ZM69 83H25V77H69V83ZM122 83H78V77H122V83ZM321 82H299V76H321V82ZM349 82H327V76H349V82ZM259.929 56.9287C260.319 56.5383 260.952 56.5385 261.343 56.9287L267.707 63.293C268.098 63.6835 268.098 64.3165 267.707 64.707L261.343 71.0713C260.952 71.4615 260.319 71.4617 259.929 71.0713C259.538 70.6809 259.538 70.0478 259.929 69.6572L264.586 65H232V63H264.586L259.929 58.3428C259.538 57.9522 259.538 57.3191 259.929 56.9287ZM69 71H25V65H69V71ZM122 71H78V65H122V71ZM321 70H299V64H321V70ZM349 70H327V64H349V70ZM69 59H25V53H69V59ZM122 59H78V53H122V59ZM202 48H25V30H202V48ZM382 48H299V30H382V48ZM340.5 16C342.985 16 345 18.0147 345 20.5C345 22.9853 342.985 25 340.5 25C338.015 25 336 22.9853 336 20.5C336 18.0147 338.015 16 340.5 16Z" fill="white"/>
</svg>
