<svg width="192" height="152" viewBox="0 0 192 152" fill="none" xmlns="http://www.w3.org/2000/svg">
<path d="M174 0C183.941 0 192 8.05887 192 18V107C192 116.941 183.941 125 174 125H111.434L109.337 130.509L109.208 130.872C108.611 132.7 108.692 134.687 109.443 136.466L111.311 140.889C111.889 142.259 112.052 143.666 111.882 145H134.5C136.433 145 138 146.567 138 148.5C138 150.433 136.433 152 134.5 152H56.5C54.567 152 53 150.433 53 148.5C53 146.567 54.567 145 56.5 145H78.9824C78.8528 143.974 78.9204 142.9 79.2246 141.827L79.2969 141.586L81.127 135.804C81.5712 134.4 81.6195 132.903 81.2686 131.478L81.1934 131.193L79.4258 125H18C8.05887 125 0 116.941 0 107V18C0 8.05887 8.05887 0 18 0H174ZM86.9629 129.547C87.717 132.189 87.6768 134.995 86.8477 137.614L85.0166 143.396C84.8369 143.964 84.9239 144.537 85.1924 145H105.667C105.966 144.485 106.043 143.84 105.782 143.223L103.915 138.799C102.513 135.478 102.446 131.744 103.729 128.375L105.013 125H85.665L86.9629 129.547ZM13 107C13 109.761 15.2386 112 18 112H174C176.761 112 179 109.761 179 107V92H13V107ZM113.5 101C114.881 101 116 102.119 116 103.5C116 104.881 114.881 106 113.5 106H80.5C79.1193 106 78 104.881 78 103.5C78 102.119 79.1193 101 80.5 101H113.5ZM18 13C15.2386 13 13 15.2386 13 18V88H179V18C179 15.2386 176.761 13 174 13H18ZM93.1836 33.0957C93.5356 32.9357 93.9041 32.9516 94.2881 33.1436C94.9281 33.4316 95.2163 33.8961 95.1523 34.5361C95.0881 34.8567 92.0153 42.4407 85.9355 57.2881L76.5283 80.1357C76.4003 80.3917 76.2557 80.5839 76.0957 80.7119C75.4557 81.1919 74.8316 81.1602 74.2236 80.6162C73.8717 80.3282 73.7121 79.9438 73.7441 79.4639C73.8092 79.1412 76.8811 71.5571 82.96 56.7119C89.1679 41.64 92.2883 34.056 92.3203 33.96C92.5443 33.4802 92.8317 33.1917 93.1836 33.0957ZM32.8398 58.3916C32.8398 60.9835 33.4957 63.0321 34.8076 64.5361C36.1516 66.1361 38.0724 66.9355 40.5684 66.9355C43.0641 66.9355 45.0159 66.1359 46.4238 64.5361C47.7038 63.0641 48.3438 61.0156 48.3438 58.3916V35.4482H53.5762V58.6318C53.5762 63.4318 52.0556 66.9682 49.0156 69.2402C46.7438 70.968 43.928 71.832 40.5684 71.832C37.2404 71.832 34.4241 70.9681 32.1201 69.2402C29.1121 67.0002 27.6084 63.4638 27.6084 58.6318V35.4482H32.8398V58.3916ZM108.121 58.3916C108.121 60.9835 108.777 63.0321 110.089 64.5361C111.433 66.1361 113.354 66.9355 115.85 66.9355C118.345 66.9355 120.297 66.1359 121.705 64.5361C122.985 63.0641 123.625 61.0156 123.625 58.3916V35.4482H128.857V58.6318C128.857 63.4318 127.337 66.9682 124.297 69.2402C122.025 70.968 119.209 71.832 115.85 71.832C112.522 71.832 109.705 70.9681 107.401 69.2402C104.393 67.0002 102.89 63.4638 102.89 58.6318V35.4482H108.121V58.3916ZM67.2822 71.0645H62.002V35.5439H67.2822V71.0645ZM150.579 48.3115L159.555 35.5439H165.699L153.747 52.3916L166.611 71.0645H160.179L150.387 56.5684L140.403 71.0645H134.163L147.315 52.3916L135.411 35.5439H141.699L150.579 48.3115Z" fill="white"/>
</svg>
