<svg width="221" height="152" viewBox="0 0 221 152" fill="none" xmlns="http://www.w3.org/2000/svg">
<path d="M174 0C183.941 0 192 8.05887 192 18V20.251L179 25.1475V18C179 15.2386 176.761 13 174 13H18C15.2386 13 13 15.2386 13 18V107C13 109.761 15.2386 112 18 112H174C176.761 112 179 109.761 179 107V45.6143L192 38.6514V107C192 116.941 183.941 125 174 125H111.434L109.337 130.509L109.208 130.872C108.611 132.7 108.692 134.687 109.443 136.466L111.311 140.889C111.889 142.259 112.052 143.666 111.882 145H134.5C136.433 145 138 146.567 138 148.5C138 150.433 136.433 152 134.5 152H56.5C54.567 152 53 150.433 53 148.5C53 146.567 54.567 145 56.5 145H78.9824C78.8528 143.974 78.9204 142.9 79.2246 141.827L79.2969 141.586L81.127 135.804C81.5712 134.4 81.6195 132.903 81.2686 131.478L81.1934 131.193L79.4258 125H18C8.05887 125 0 116.941 0 107V18C0 8.05887 8.05887 0 18 0H174ZM86.9629 129.547C87.717 132.189 87.6768 134.995 86.8477 137.614L85.0166 143.396C84.8369 143.964 84.9239 144.537 85.1924 145H105.667C105.966 144.485 106.043 143.84 105.782 143.223L103.915 138.799C102.513 135.478 102.446 131.744 103.729 128.375L105.013 125H85.665L86.9629 129.547ZM101.966 56.5869C105.812 56.5436 110.191 58.2909 112.846 61.3398C113.912 62.5683 114.703 63.995 115.061 65.5762C115.216 66.2773 115.3 67.0102 115.3 67.7793C115.325 77.3139 106.07 82.6733 97.5605 83.7393C89.7263 84.7255 81.5093 82.7802 76 81.2002C87.255 75.1775 87.4587 56.7241 101.966 56.5869ZM58 82H23V79H58V82ZM58 71H23V68H58V71ZM138.48 41.6924C142.994 47.665 146.24 54.0382 147.285 61.0986C137.206 62.9513 131.236 63.8424 121.148 66.6387C121.043 63.7994 119.596 59.25 116.717 56.9268L138.48 41.6924ZM58 60H23V57H58V60ZM211.211 14.4316C214.84 13.0881 217.561 12.6578 220.176 16.5791C220.734 18.1592 220.76 19.5541 220.266 20.7598C219.771 21.9654 218.749 22.9778 217.192 23.8047L150.239 59.1104C148.653 51.8831 145.876 45.5073 141.764 40.0781L211.211 14.4316ZM58 49H23V46H58V49ZM101 49H66V46H101V49ZM58 38H23V35H58V38ZM101 38H66V35H101V38ZM58 27H23V24H58V27ZM101 27H66V24H101V27Z" fill="white"/>
</svg>
