<svg width="667" height="534" viewBox="0 0 667 534" fill="none" xmlns="http://www.w3.org/2000/svg">
<path d="M566.666 0C621.894 0 666.666 44.7715 666.666 100V433.333C666.666 488.561 621.894 533.333 566.666 533.333H100C44.7717 533.333 0.000272169 488.561 0 433.333V100C0 44.7715 44.7715 0 100 0H566.666ZM413.333 281.667H413.332C366.294 316.944 301.758 317.22 254.447 282.494L253.333 281.667L66.666 141.667V433.333C66.6663 451.742 81.5907 466.666 100 466.666H566.666C585.075 466.666 600 451.742 600 433.333V141.666L413.333 281.667ZM100 66.666C93.926 66.666 88.2315 68.2904 83.3271 71.1289C84.4689 71.7896 85.5844 72.5238 86.666 73.335L293.333 228.333H293.332C317.037 246.111 349.628 246.111 373.333 228.333L579.999 73.333C581.08 72.5224 582.195 71.7883 583.336 71.1279C578.432 68.2904 572.739 66.666 566.666 66.666H100Z" fill="#F7BF45"/>
</svg>
