<svg width="200" height="201" viewBox="0 0 200 201" fill="none" xmlns="http://www.w3.org/2000/svg">
<path d="M89 24.6998C70.3 27.0998 54.3 35.3998 41.5 49.1998C27 64.8998 20.1 84.1998 21.3 106C23 135.1 37.8 158.7 62.3 171C66.6 173.2 71.6 175.2 73.6 175.6C79 176.6 80 175.1 80 165.5V157.2L71.1 156.8C60.3 156.4 57.9 155.1 53.3 146.4C51.6 143.2 48.5 139.1 46.6 137.4C44.6 135.7 43 133.9 43 133.5C43 133.1 44.7 133 46.7 133.3C49.6 133.8 51.8 135.4 57.4 141.5L64.5 149L70 148.9C77.7 148.8 78.8 148.2 81.9 141.7L84.7 136L82.1 135.4C75.6 134.1 66.6 130.8 63.1 128.4C49.8 119.6 45.8 94.9998 55.4 81.0998C57.7 77.7998 57.9 77.0998 56.9 73.5998C55.8 69.5998 56.4 61.8998 58.2 58.6998C59.5 56.2998 63.4 57.0998 72.2 61.6998C78.8 65.1998 79 65.1998 85.3 64.0998C93.4 62.6998 103.6 62.6998 111.6 64.0998C117.9 65.1998 117.9 65.1998 126.1 61.0998C135.3 56.4998 137.5 56.0998 139 58.9998C140.7 62.1998 141.4 70.4998 140.2 73.8998C139.2 76.5998 139.5 77.5998 142.5 82.5998C146.5 89.1998 147.5 94.4998 146.7 104.3C145.9 114.1 141.5 122.9 135.2 127.5C130.4 130.9 119.9 135 115.6 135C112.2 135 112.1 135.6 114.6 140.7C116.8 144.9 117 146.6 117 159.5C117 175.6 117.4 176.7 123.4 175.6C134.7 173.5 152.3 160.5 161.6 147.5C172.3 132.5 176.6 117.7 175.7 98.5998C174.8 77.1998 168.3 62.2998 153.5 47.3998C145.7 39.5998 143.1 37.6998 134 33.1998C128.2 30.3998 120.6 27.3998 117 26.4998C110 24.8998 94.7 23.8998 89 24.6998Z" fill="#F7BF45"/>
</svg>
