<svg width="200" height="201" viewBox="0 0 200 201" fill="none" xmlns="http://www.w3.org/2000/svg">
<path d="M38.4 29.9999C32.8 32.1999 33 29.8999 33 100.6V165.7L35.4 168.3C36.7 169.7 39.3 171.1 41.1 171.5C43 171.8 70.7 172 102.7 171.8L161 171.5L163.7 168.7L166.5 166L166.8 101.7C167 54.6999 166.7 36.7999 165.9 34.6999C163.5 28.8999 164.5 28.9999 99.8 29.0999C67.2 29.0999 39.5 29.4999 38.4 29.9999ZM71.5 49.0999C78.1 54.8999 78.6 64.5999 72.6 70.5999C69 74.1999 63.6 75.6999 59.4 74.2999C55.2 72.8999 50.9 66.8999 50.3 61.7999C48.8 48.9999 62.2 40.9999 71.5 49.0999ZM140.3 84.5999C149.6 91.0999 152 100.6 152 130.7C152 142.3 151.7 152.5 151.4 153.4C150.9 154.7 149 155 141.5 155C135.1 155 131.9 154.6 131.3 153.7C130.9 153.1 130.5 143 130.5 131.5C130.5 114.2 130.2 109.9 128.8 106.9C124.4 97.0999 112.4 97.6999 107.7 107.8C105.7 112.1 105.5 114.1 105.5 132.7C105.5 146 105.1 153.3 104.4 154C103.7 154.7 99.9 155 94.4 154.8L85.5 154.5L85.2 119.6C85 94.6999 85.3 84.2999 86.1 83.3999C86.9 82.3999 89.7 81.9999 95.6 81.9999C103 81.9999 104 82.1999 105.1 84.0999C105.7 85.2999 106 87.0999 105.7 88.0999C104.9 91.1999 106.4 91.0999 109.5 87.7999C114.5 82.5999 119.4 80.8999 128.3 81.2999C135 81.5999 136.7 82.0999 140.3 84.5999ZM72.8 83.1999C74.5 84.8999 74.5 152.1 72.8 153.8C71.2 155.4 55.8 155.4 54.2 153.8C52.5 152.1 52.5 84.8999 54.2 83.1999C54.9 82.4999 58.5 81.9999 63.5 81.9999C68.5 81.9999 72.1 82.4999 72.8 83.1999Z" fill="#F7BF45"/>
</svg>
