<svg width="219" height="91" viewBox="0 0 219 91" fill="none" xmlns="http://www.w3.org/2000/svg">
<path d="M120.518 15.2277C124.4 15.2277 127.784 20.0548 124.997 26.2255C122.26 32.3962 113.651 39.2139 106.037 39.2139C98.7716 39.2139 99.2692 31.8488 99.9659 29.8085C99.6674 30.2066 99.3688 30.7043 99.0702 31.1521C89.9634 44.887 86.5297 53.6952 86.5297 53.6952H76.3281C81.0059 48.1714 102.653 16.7206 102.852 15.178C107.53 15.178 109.222 15.178 113.153 15.178C113.153 16.1235 110.615 17.0192 106.186 21.8961C113.203 16.223 117.931 15.2277 120.518 15.2277ZM115.741 26.4743C120.12 23.0904 122.36 19.4576 121.116 17.7159C119.871 16.0239 115.741 17.0192 111.262 20.2041C106.833 23.4388 103.151 28.6142 104.395 30.3559C105.639 32.0479 111.013 30.1071 115.741 26.4743Z" fill="white"/>
<path d="M87.5048 29.8583C84.8175 33.3915 78.9952 39.2637 72.3766 39.2637C63.3693 39.2637 64.8125 30.6545 69.341 24.9317C73.969 19.1093 80.7369 15.1282 86.3105 15.1282C93.3769 15.1282 92.0333 22.8914 88.6991 28.1663C92.3816 29.6592 94.422 27.5692 94.9694 27.0218C95.5168 26.4744 96.2135 26.6734 95.9149 27.3203C94.1731 30.4057 91.0878 30.6047 89.7442 30.5052C88.8982 30.4057 88.0522 30.0573 87.5048 29.8583ZM82.3294 28.664C81.4834 27.6687 82.1303 25.081 84.4194 24.5336C85.9123 24.1852 86.609 24.7326 86.9076 25.2303C87.1564 24.8819 87.4053 24.4838 87.6541 24.1355C89.8935 20.5027 90.2916 16.8699 86.9076 16.8699C83.7227 16.8699 78.9952 21.4482 77.2037 24.2847C75.0141 27.818 75.9098 30.9531 78.9454 30.9531C80.2393 30.9531 81.6824 30.3559 83.0261 29.3607C82.827 29.1616 82.6279 28.9625 82.3294 28.664Z" fill="white"/>
<path d="M50.9084 0C60.2142 0 68.4252 5.12567 68.4252 14.0334C68.4252 22.6425 59.5673 33.7399 47.1761 33.7399C42.8466 33.7399 34.984 30.5052 34.984 22.8416C34.984 22.5928 35.0337 22.344 35.0337 22.0951C34.4863 22.7918 33.9389 23.4885 33.3418 24.1852C24.8819 34.5858 17.4671 42.2495 9.85323 42.2495C4.1304 42.2495 0 38.567 0 33.0432C0 27.9175 5.27496 24.5336 9.25607 24.5336C13.2372 24.5336 14.2324 26.972 14.3817 27.171C14.4813 27.3701 14.1329 27.9175 13.8841 27.7184C13.1376 26.6236 12.5405 26.2753 11.5452 26.0762C9.10678 27.9175 10.4006 33.3418 15.9742 33.3915C22.344 33.4413 30.8536 22.9411 36.9745 16.4718C38.6167 14.7301 39.7613 13.4362 41.6523 11.2466H44.3396C43.0457 12.7395 41.7518 14.1827 40.458 15.6756C40.9556 15.6258 41.4035 15.6258 41.8514 15.8249C40.5575 20.7515 44.2898 24.9317 49.8633 24.9317C56.7805 24.9317 64.9418 18.5121 64.9418 12.2419C64.9418 5.37449 59.617 2.8863 53.2473 2.8863C38.2684 2.8863 24.3345 18.96 24.3345 18.96L19.8558 11.595C29.4602 4.18016 41.5528 0 50.9084 0Z" fill="white"/>
<path d="M215.279 76.8975C216.291 75.8855 217.25 76.0986 216.557 77.3769C215.918 78.6019 214.267 81.3716 210.485 84.9402C205.692 89.5208 201.963 90.5861 199.62 90.5861C197.542 90.5861 195.678 89.6806 195.252 87.1773C194.933 85.3663 195.305 83.6086 195.731 82.3303C193.494 85.4728 188.914 90.5861 183.801 90.5861C178.315 90.5861 176.344 83.8217 181.51 76.2051C184.759 71.4115 192.695 64.8069 199.513 64.8069C201.857 64.8069 203.881 65.4993 204.467 67.3102C205.052 69.1212 204.2 71.2517 204.2 71.2517C207.609 67.6298 208.994 64.8069 208.994 64.8069H218.741C218.528 65.7123 213.841 66.8309 210.059 71.9974C206.597 76.6312 205.638 81.6912 208.461 81.6912C211.497 81.6912 214.214 77.8563 215.279 76.8975ZM201.537 73.4887C203.614 70.4527 203.561 67.0439 201.697 66.6711C199.993 66.3515 196.637 67.2037 192.909 71.6778C188.541 76.8443 188.328 81.6912 190.991 81.6912C195.731 81.6912 201.537 73.4887 201.537 73.4887Z" fill="white"/>
<path d="M180.889 76.8975C181.901 75.8855 182.806 76.0986 182.167 77.3769C181.528 78.6019 179.823 81.3716 176.095 84.9402C171.301 89.5208 167.573 90.5861 165.229 90.5861C163.152 90.5861 161.288 89.6806 160.862 87.1773C160.596 85.5261 160.862 83.9282 161.235 82.7564C158.891 85.8457 154.47 90.5861 149.57 90.5861C144.084 90.5861 142.113 83.8217 147.28 76.2051C150.529 71.4115 158.465 64.8069 165.283 64.8069C167.626 64.8069 169.65 65.4993 170.236 67.3102C170.662 68.6951 170.289 70.2397 170.076 70.9321C182.007 56.125 183.019 53.1956 183.019 53.1956H195.376C195.376 54.5271 191.328 53.3021 175.669 71.9974C173.166 74.9268 169.011 81.6912 173.592 81.6912C176.894 81.6912 179.823 77.8563 180.889 76.8975ZM167.307 73.4887C169.384 70.4527 169.331 67.0439 167.466 66.6711C165.762 66.3515 162.406 67.2037 158.678 71.6778C154.311 76.8443 154.097 81.6912 156.761 81.6912C161.501 81.6912 167.307 73.4887 167.307 73.4887Z" fill="white"/>
<path d="M139.322 80.5194C136.446 84.3011 130.214 90.5861 123.13 90.5861C113.489 90.5861 115.034 81.3716 119.881 75.2464C124.834 69.0146 132.078 64.7536 138.044 64.7536C145.607 64.7536 144.169 73.0626 140.6 78.7085C144.542 80.3063 146.725 78.0693 147.311 77.4834C147.897 76.8975 148.643 77.1106 148.323 77.803C146.459 81.1053 143.157 81.3183 141.719 81.2118C140.813 81.1053 139.908 80.7325 139.322 80.5194ZM133.783 79.2411C132.877 78.1758 133.57 75.4062 136.02 74.8203C137.618 74.4474 138.363 75.0333 138.683 75.566C138.949 75.1931 139.215 74.767 139.482 74.3942C141.879 70.506 142.305 66.6178 138.683 66.6178C135.274 66.6178 130.214 71.518 128.297 74.554C125.953 78.3356 126.912 81.6912 130.161 81.6912C131.546 81.6912 133.09 81.052 134.528 79.9868C134.315 79.7737 134.102 79.5607 133.783 79.2411Z" fill="white"/>
<path d="M124.212 48.7215C129.752 48.7215 131.349 52.2901 131.349 55.3261C131.349 58.2023 128.313 63.1557 122.721 63.1557C119.419 63.1557 117.874 61.0785 117.874 61.0785L120.857 57.7762C120.857 57.7762 122.455 59.4273 124.532 59.4273C126.662 59.4273 129.592 58.3088 129.592 54.9532C129.592 52.876 127.941 50.7987 125.171 50.7987C119.738 50.7987 115.371 57.137 115.051 68.9081C114.678 80.5727 106.902 90.9057 94.5448 90.9057C87.0347 90.9057 81.1226 84.9935 81.1226 77.8563C81.1226 70.7723 87.4608 66.5113 92.3078 66.5113C97.421 66.5113 98.7526 69.7603 98.3797 71.0386C98.3265 71.4647 97.6873 71.5712 97.7938 70.9854C97.8471 70.4527 97.4742 68.8016 96.1427 68.4287C95.0774 68.4287 93.9056 69.707 93.9056 71.6778C93.9056 73.6485 95.61 76.578 99.1787 76.578C102.694 76.578 106.689 73.5952 108.713 63.5818C110.896 52.8227 118.673 48.7215 124.212 48.7215Z" fill="white"/>
</svg>
